# xmcd
#
# Track frame offsets: 
#        150
#        10452
#        28435
#        38565
#        48932
#        55555
#        68627
#        73532
#        99520
#        101782
#        111947
#        120987
#        135280
#        143722
#        158462
#        166759
#        178142
#        192162
#        205742
#        210372
#        234952
#        243252
#        256035
#
# Disc length: 3569 seconds
#
# Revision: 0
# Processed by: cddbd v1.5PL3 Copyright (c) Steve Scherf et al.
# Submitted via: ExactAudioCopy v0.95a5
#
DISCID=260def17
DTITLE=The V W Boys - Big Fat Earl
DYEAR=1900
DGENRE=Bluegrass
TTITLE0=Man On Street " Acappella
TTITLE1=Big Fat Earl
TTITLE2=Man On Street " Flyin Saucer "
TTITLE3=Dixie Breakdown
TTITLE4=Man On Street " Oh Gosh "
TTITLE5=Corrina ,  Corrina
TTITLE6=Man On Street " Shortnin' Bread "
TTITLE7=Can I Pick One
TTITLE8=Man On Street " I'm Sorry I Asked "
TTITLE9=Banjo Medley
TTITLE10=Man On Street " No Kinda Acappella "
TTITLE11=Jesus Loves Me
TTITLE12=Man On Street " Uncle Jack Penn "
TTITLE13=Mockin' Bird
TTITLE14=Man On Street " Buel Ives "
TTITLE15=To Old To Cut The Mustard
TTITLE16=Man On Street " James K. Polk "
TTITLE17=Flint Hill Special
TTITLE18=Intro: " Poor Boy's Christmas "
TTITLE19=Poor Boy's Christmas
TTITLE20=Man On The Street " Tiny Tim "
TTITLE21=Shuckin The Corn
TTITLE22=Music Medicine
EXTD=
EXTT0=
EXTT1=
EXTT2=
EXTT3=
EXTT4=
EXTT5=
EXTT6=
EXTT7=
EXTT8=
EXTT9=
EXTT10=
EXTT11=
EXTT12=
EXTT13=
EXTT14=
EXTT15=
EXTT16=
EXTT17=
EXTT18=
EXTT19=
EXTT20=
EXTT21=
EXTT22=
PLAYORDER=
